<svg xmlns="http://www.w3.org/2000/svg"  viewBox="0 0 64 64" width="64px" height="64px"><linearGradient id="QMrSK~idWP5nSRobBCgKVa" x1="32" x2="32" y1="10" y2="21" gradientUnits="userSpaceOnUse"><stop offset="0" stop-color="#6dc7ff"/><stop offset="1" stop-color="#e6abff"/></linearGradient><path fill="url(#QMrSK~idWP5nSRobBCgKVa)" d="M54,21H10v-6.638C10,11.953,11.953,10,14.362,10h35.277C52.047,10,54,11.953,54,14.362V21z"/><linearGradient id="QMrSK~idWP5nSRobBCgKVb" x1="32" x2="32" y1="42" y2="44" gradientUnits="userSpaceOnUse"><stop offset="0" stop-color="#6dc7ff"/><stop offset="1" stop-color="#e6abff"/></linearGradient><rect width="44" height="2" x="10" y="42" fill="url(#QMrSK~idWP5nSRobBCgKVb)"/><linearGradient id="QMrSK~idWP5nSRobBCgKVc" x1="32" x2="32" y1="31" y2="33" gradientUnits="userSpaceOnUse"><stop offset="0" stop-color="#6dc7ff"/><stop offset="1" stop-color="#e6abff"/></linearGradient><rect width="44" height="2" x="10" y="31" fill="url(#QMrSK~idWP5nSRobBCgKVc)"/><linearGradient id="QMrSK~idWP5nSRobBCgKVd" x1="32" x2="32" y1="9" y2="55" gradientUnits="userSpaceOnUse"><stop offset="0" stop-color="#1a6dff"/><stop offset="1" stop-color="#c822ff"/></linearGradient><path fill="url(#QMrSK~idWP5nSRobBCgKVd)" d="M33,23c0-0.552,0.448-1,1-1s1,0.448,1,1c0,0.552-0.448,1-1,1S33,23.552,33,23z M38,24	c0.552,0,1-0.448,1-1c0-0.552-0.448-1-1-1s-1,0.448-1,1C37,23.552,37.448,24,38,24z M30,24c0.552,0,1-0.448,1-1c0-0.552-0.448-1-1-1	s-1,0.448-1,1C29,23.552,29.448,24,30,24z M50,24c0.552,0,1-0.448,1-1c0-0.552-0.448-1-1-1s-1,0.448-1,1C49,23.552,49.448,24,50,24z M46,24c0.552,0,1-0.448,1-1c0-0.552-0.448-1-1-1s-1,0.448-1,1C45,23.552,45.448,24,46,24z M42,24c0.552,0,1-0.448,1-1	c0-0.552-0.448-1-1-1s-1,0.448-1,1C41,23.552,41.448,24,42,24z M14,24c0.552,0,1-0.448,1-1c0-0.552-0.448-1-1-1s-1,0.448-1,1	C13,23.552,13.448,24,14,24z M26,24c0.552,0,1-0.448,1-1c0-0.552-0.448-1-1-1s-1,0.448-1,1C25,23.552,25.448,24,26,24z M55,14v36	c0,2.757-2.243,5-5,5H14c-2.757,0-5-2.243-5-5V14c0-2.757,2.243-5,5-5h36C52.757,9,55,11.243,55,14z M53,21H11v7v3v2v9v2v3v3	c0,1.654,1.346,3,3,3h36c1.654,0,3-1.346,3-3v-3v-3v-2v-9v-2v-3V21z M53,14c0-1.654-1.346-3-3-3H14c-1.654,0-3,1.346-3,3v5h42V14z M18,24c0.552,0,1-0.448,1-1c0-0.552-0.448-1-1-1s-1,0.448-1,1C17,23.552,17.448,24,18,24z M22,24c0.552,0,1-0.448,1-1	c0-0.552-0.448-1-1-1s-1,0.448-1,1C21,23.552,21.448,24,22,24z"/></svg>