<svg width="849" height="470" viewBox="0 0 849 470" fill="none" xmlns="http://www.w3.org/2000/svg">
<g clip-path="url(#clip0_0_1)">
<path d="M847.485 469.443H1.19069C0.875498 469.442 0.573534 469.316 0.350983 469.093C0.128431 468.87 0.00344849 468.567 0.00344849 468.252C0.00344849 467.937 0.128431 467.634 0.350983 467.411C0.573534 467.188 0.875498 467.062 1.19069 467.061H847.485C847.8 467.062 848.102 467.188 848.324 467.411C848.547 467.634 848.672 467.937 848.672 468.252C848.672 468.567 848.547 468.87 848.324 469.093C848.102 469.316 847.8 469.442 847.485 469.443V469.443Z" fill="#3F3D56"/>
<path d="M450.244 205C457.423 205 463.244 199.18 463.244 192C463.244 184.82 457.423 179 450.244 179C443.064 179 437.244 184.82 437.244 192C437.244 199.18 443.064 205 450.244 205Z" fill="#112442"/>
<path d="M448.955 196.959C448.663 196.96 448.378 196.865 448.144 196.69L448.129 196.679L445.074 194.34C444.932 194.232 444.813 194.096 444.723 193.942C444.634 193.788 444.575 193.617 444.552 193.44C444.528 193.263 444.54 193.083 444.586 192.911C444.632 192.738 444.711 192.576 444.82 192.435C444.928 192.293 445.064 192.174 445.218 192.085C445.373 191.996 445.544 191.938 445.721 191.915C445.898 191.891 446.078 191.903 446.25 191.95C446.422 191.996 446.584 192.076 446.725 192.185L448.704 193.702L453.381 187.604C453.489 187.462 453.624 187.344 453.779 187.254C453.933 187.165 454.103 187.107 454.28 187.084C454.457 187.061 454.636 187.072 454.808 187.118C454.981 187.164 455.142 187.244 455.284 187.352L455.254 187.392L455.284 187.353C455.57 187.572 455.756 187.896 455.803 188.253C455.85 188.609 455.754 188.97 455.535 189.256L450.035 196.43C449.908 196.595 449.744 196.729 449.557 196.82C449.37 196.912 449.164 196.96 448.955 196.959V196.959Z" fill="#A9AFC3"/>
<path d="M450.244 243C457.423 243 463.244 237.18 463.244 230C463.244 222.82 457.423 217 450.244 217C443.064 217 437.244 222.82 437.244 230C437.244 237.18 443.064 243 450.244 243Z" fill="#112442"/>
<path d="M448.955 234.959C448.663 234.96 448.378 234.865 448.144 234.69L448.129 234.679L445.074 232.34C444.932 232.232 444.813 232.096 444.723 231.942C444.634 231.788 444.575 231.617 444.552 231.44C444.528 231.263 444.54 231.083 444.586 230.911C444.632 230.738 444.711 230.576 444.82 230.435C444.928 230.293 445.064 230.174 445.218 230.085C445.373 229.996 445.544 229.938 445.721 229.915C445.898 229.891 446.078 229.903 446.25 229.95C446.422 229.996 446.584 230.076 446.725 230.185L448.704 231.702L453.381 225.604C453.489 225.462 453.624 225.344 453.779 225.254C453.933 225.165 454.103 225.107 454.28 225.084C454.457 225.061 454.636 225.072 454.808 225.118C454.981 225.164 455.142 225.244 455.284 225.352L455.254 225.392L455.284 225.353C455.57 225.572 455.756 225.896 455.803 226.253C455.85 226.609 455.754 226.97 455.535 227.256L450.035 234.43C449.908 234.595 449.744 234.729 449.557 234.82C449.37 234.912 449.164 234.96 448.955 234.959V234.959Z" fill="#A9AFC3"/>
<path d="M457.244 287C464.423 287 470.244 281.18 470.244 274C470.244 266.82 464.423 261 457.244 261C450.064 261 444.244 266.82 444.244 274C444.244 281.18 450.064 287 457.244 287Z" fill="#112442"/>
<path d="M455.955 278.959C455.663 278.96 455.378 278.865 455.144 278.69L455.129 278.679L452.074 276.34C451.932 276.232 451.813 276.096 451.723 275.942C451.634 275.788 451.575 275.617 451.552 275.44C451.528 275.263 451.54 275.083 451.586 274.911C451.632 274.738 451.711 274.577 451.82 274.435C451.928 274.293 452.064 274.174 452.218 274.085C452.373 273.996 452.544 273.938 452.721 273.915C452.898 273.891 453.078 273.903 453.25 273.95C453.422 273.996 453.584 274.076 453.725 274.185L455.704 275.702L460.381 269.604C460.489 269.462 460.624 269.344 460.779 269.254C460.933 269.165 461.103 269.107 461.28 269.084C461.457 269.061 461.636 269.072 461.808 269.118C461.981 269.164 462.142 269.244 462.284 269.352L462.254 269.392L462.284 269.353C462.57 269.572 462.756 269.896 462.803 270.253C462.85 270.609 462.754 270.97 462.535 271.256L457.035 278.43C456.908 278.595 456.744 278.729 456.557 278.82C456.37 278.912 456.164 278.96 455.955 278.959V278.959Z" fill="#A9AFC3"/>
<path d="M582.6 382.539C582.465 382.539 582.38 382.536 582.351 382.534L566.211 382.536V380.156H582.409C582.784 380.17 590.435 380.386 597.485 371.831C607.991 359.082 616.619 327.522 598.058 249.567C573.101 144.747 593.916 52.1437 604.024 17.1953C604.522 15.4663 604.611 13.6451 604.284 11.8757C603.957 10.1063 603.223 8.43721 602.141 7.00021C601.058 5.5632 599.656 4.3977 598.045 3.5958C596.434 2.7939 594.659 2.37759 592.86 2.37972H351.825C349.993 2.38218 348.187 2.81667 346.554 3.64796C344.92 4.47924 343.506 5.68388 342.426 7.1641C338.144 13.0541 332.268 24.3693 328.591 44.8291L326.249 44.4085C330.006 23.5042 336.073 11.8561 340.501 5.76508C341.803 3.98149 343.506 2.52993 345.474 1.52824C347.441 0.526545 349.617 0.00296261 351.825 6.47662e-06H592.86C595.028 -0.00208019 597.167 0.500081 599.108 1.46682C601.049 2.43356 602.738 3.83838 604.043 5.5703C605.347 7.30223 606.231 9.31379 606.625 11.4461C607.018 13.5784 606.911 15.773 606.31 17.8565C596.255 52.6235 575.547 144.746 600.373 249.017C619.195 328.067 610.147 360.312 599.242 373.441C592.05 382.101 584.125 382.539 582.6 382.539Z" fill="#A9AFC3"/>
<path d="M539.17 425.969C539.035 425.969 538.951 425.965 538.921 425.964L522.781 425.965V423.586H538.979C539.356 423.597 547.006 423.815 554.056 415.261C564.562 402.512 573.189 370.951 554.629 292.997C529.671 188.176 550.487 95.5731 560.594 60.6248C561.092 58.8958 561.182 57.0746 560.855 55.3052C560.528 53.5358 559.794 51.8667 558.711 50.4297C557.628 48.9927 556.226 47.8272 554.615 47.0253C553.005 46.2234 551.229 45.8071 549.43 45.8092H308.396C306.563 45.8117 304.757 46.2461 303.124 47.0774C301.491 47.9087 300.077 49.1134 298.996 50.5936C294.715 56.4836 288.839 67.7988 285.162 88.2586L282.819 87.838C286.576 66.9337 292.643 55.2856 297.072 49.1946C298.373 47.411 300.077 45.9594 302.044 44.9577C304.012 43.956 306.188 43.4324 308.396 43.4295H549.43C551.598 43.4274 553.737 43.9296 555.678 44.8963C557.619 45.863 559.309 47.2679 560.613 48.9998C561.918 50.7317 562.802 52.7433 563.195 54.8756C563.589 57.0079 563.481 59.2025 562.881 61.286C552.825 96.053 532.117 188.176 556.944 292.446C575.765 371.497 566.717 403.741 555.813 416.871C548.62 425.53 540.695 425.969 539.17 425.969Z" fill="#A9AFC3"/>
<path d="M513.514 335.88C488.684 231.61 509.394 139.48 519.454 104.72C520.053 102.636 520.159 100.442 519.765 98.3103C519.371 96.1785 518.487 94.1673 517.183 92.4355C515.879 90.7037 514.19 89.2986 512.25 88.331C510.31 87.3634 508.171 86.8599 506.003 86.86H264.964C262.757 86.8622 260.582 87.3849 258.615 88.3858C256.648 89.3866 254.945 90.8373 253.644 92.62C243.914 106 223.724 150.37 246.274 273.14C258.334 338.82 258.154 383.6 254.214 413.1C252.003 429.71 248.594 441.47 245.503 449.4L245.174 450.24C244.523 451.845 244.184 453.559 244.174 455.29C244.151 457.245 244.543 459.183 245.324 460.976C246.105 462.768 247.257 464.375 248.704 465.69C249.647 466.574 250.715 467.315 251.874 467.89C252.835 468.381 253.853 468.753 254.904 469C255.974 469.261 257.072 469.392 258.174 469.39H495.494C495.524 469.39 495.604 469.4 495.744 469.4C497.264 469.4 505.194 468.96 512.384 460.3C523.284 447.17 532.334 414.93 513.514 335.88ZM510.624 458.69C503.574 467.25 495.924 467.03 495.554 467.02H258.174C256.273 467.02 254.402 466.553 252.723 465.663C251.044 464.772 249.609 463.483 248.543 461.91C247.606 460.55 246.976 459.001 246.698 457.373C246.42 455.744 246.501 454.074 246.934 452.48C247.047 452.017 247.194 451.562 247.374 451.12C250.903 442.05 253.52 432.65 255.184 423.06C260.824 392.31 261.874 344.86 248.614 272.71C226.234 150.85 246.024 107.15 255.564 94.02C256.646 92.542 258.061 91.3392 259.694 90.5088C261.327 89.6785 263.132 89.2439 264.964 89.24H506.003C507.802 89.2388 509.576 89.6555 511.186 90.4574C512.795 91.2592 514.197 92.4242 515.279 93.8605C516.361 95.2967 517.095 96.9648 517.422 98.7332C517.749 100.502 517.661 102.322 517.164 104.05C507.054 139 486.244 231.61 511.204 336.43C529.764 414.38 521.134 445.94 510.624 458.69Z" fill="#3F3D56"/>
<path d="M399.003 200.4H274.817C272.293 200.4 269.871 199.398 268.086 197.612C266.301 195.827 265.298 193.406 265.298 190.882C265.298 188.357 266.301 185.936 268.086 184.151C269.871 182.366 272.293 181.363 274.817 181.363H399.003C401.528 181.363 403.949 182.366 405.734 184.151C407.519 185.936 408.522 188.357 408.522 190.882C408.522 193.406 407.519 195.827 405.734 197.612C403.949 199.398 401.528 200.4 399.003 200.4V200.4Z" fill="#A9AFC3"/>
<path d="M399.003 241.4H274.817C272.293 241.4 269.871 240.398 268.086 238.612C266.301 236.827 265.298 234.406 265.298 231.882C265.298 229.357 266.301 226.936 268.086 225.151C269.871 223.366 272.293 222.363 274.817 222.363H399.003C401.528 222.363 403.949 223.366 405.734 225.151C407.519 226.936 408.522 229.357 408.522 231.882C408.522 234.406 407.519 236.827 405.734 238.612C403.949 240.398 401.528 241.4 399.003 241.4V241.4Z" fill="#A9AFC3"/>
<path d="M409.003 283.4H284.817C282.293 283.4 279.871 282.398 278.086 280.612C276.301 278.827 275.298 276.406 275.298 273.882C275.298 271.357 276.301 268.936 278.086 267.151C279.871 265.366 282.293 264.363 284.817 264.363H409.003C411.528 264.363 413.949 265.366 415.734 267.151C417.519 268.936 418.522 271.357 418.522 273.882C418.522 276.406 417.519 278.827 415.734 280.612C413.949 282.398 411.528 283.4 409.003 283.4V283.4Z" fill="#A9AFC3"/>
<path d="M416.003 327.4H291.817C289.293 327.4 286.871 326.397 285.086 324.612C283.301 322.827 282.298 320.406 282.298 317.882C282.298 315.357 283.301 312.936 285.086 311.151C286.871 309.366 289.293 308.363 291.817 308.363H416.003C418.528 308.363 420.949 309.366 422.734 311.151C424.519 312.936 425.522 315.357 425.522 317.882C425.522 320.406 424.519 322.827 422.734 324.612C420.949 326.397 418.528 327.4 416.003 327.4Z" fill="#A9AFC3"/>
<path d="M416.056 126.491H326.817C325.566 126.492 324.327 126.247 323.171 125.769C322.015 125.291 320.965 124.59 320.08 123.706C319.195 122.822 318.493 121.772 318.014 120.617C317.535 119.461 317.289 118.223 317.289 116.972C317.289 115.721 317.535 114.482 318.014 113.327C318.493 112.171 319.195 111.122 320.08 110.238C320.965 109.354 322.015 108.653 323.171 108.175C324.327 107.697 325.566 107.452 326.817 107.453H416.056C418.58 107.453 421.002 108.456 422.787 110.241C424.572 112.026 425.575 114.447 425.575 116.972C425.575 119.496 424.572 121.917 422.787 123.703C421.002 125.488 418.58 126.491 416.056 126.491Z" fill="#112442"/>
<path d="M465.244 330.882C472.423 330.882 478.244 325.061 478.244 317.882C478.244 310.702 472.423 304.882 465.244 304.882C458.064 304.882 452.244 310.702 452.244 317.882C452.244 325.061 458.064 330.882 465.244 330.882Z" fill="#A9AFC3"/>
<path d="M422.003 370.4H297.817C295.293 370.4 292.871 369.397 291.086 367.612C289.301 365.827 288.298 363.406 288.298 360.882C288.298 358.357 289.301 355.936 291.086 354.151C292.871 352.366 295.293 351.363 297.817 351.363H422.003C424.528 351.363 426.949 352.366 428.734 354.151C430.519 355.936 431.522 358.357 431.522 360.882C431.522 363.406 430.519 365.827 428.734 367.612C426.949 369.397 424.528 370.4 422.003 370.4Z" fill="#A9AFC3"/>
<path d="M471.244 373.882C478.423 373.882 484.244 368.061 484.244 360.882C484.244 353.702 478.423 347.882 471.244 347.882C464.064 347.882 458.244 353.702 458.244 360.882C458.244 368.061 464.064 373.882 471.244 373.882Z" fill="#A9AFC3"/>
</g>
<defs>
<clipPath id="clip0_0_1">
<rect width="848.675" height="469.443" fill="white"/>
</clipPath>
</defs>
</svg>
